<?xml version="1.0" standalone="no"?><!DOCTYPE svg PUBLIC "-//W3C//DTD SVG 1.1//EN" "http://www.w3.org/Graphics/SVG/1.1/DTD/svg11.dtd"><svg t="1669782990569" class="icon" viewBox="0 0 1024 1024" version="1.1" xmlns="http://www.w3.org/2000/svg" p-id="47266" xmlns:xlink="http://www.w3.org/1999/xlink" width="32" height="32"><path d="M500.6336 806.656h-30.72c-8.4992 0-15.36-6.8608-15.36-15.36s6.8608-15.36 15.36-15.36h30.72c8.4992 0 15.36 6.8608 15.36 15.36s-6.912 15.36-15.36 15.36zM774.9632 806.656h-68.608c-8.4992 0-15.36-6.8608-15.36-15.36s6.8608-15.36 15.36-15.36h68.608c8.4992 0 15.36 6.8608 15.36 15.36s-6.912 15.36-15.36 15.36z" fill="#F9C47B" p-id="47267"></path><path d="M637.7984 806.656h-68.5568c-8.4992 0-15.36-6.8608-15.36-15.36s6.8608-15.36 15.36-15.36h68.5568c8.4992 0 15.36 6.8608 15.36 15.36s-6.912 15.36-15.36 15.36zM874.24 806.656h-30.72c-8.4992 0-15.36-6.8608-15.36-15.36s6.8608-15.36 15.36-15.36h30.72c8.4992 0 15.36 6.8608 15.36 15.36s-6.8608 15.36-15.36 15.36z" fill="#CBDCFF" p-id="47268"></path><path d="M809.3184 718.592H218.368c-50.8416 0-92.0576-41.216-92.0576-92.0576V239.1552c0-50.8416 41.216-92.0576 92.0576-92.0576h590.9504c50.8416 0 92.0576 41.216 92.0576 92.0576v387.3792c0 50.8416-41.216 92.0576-92.0576 92.0576z" fill="#7F9AFF" p-id="47269"></path><path d="M772.1472 144.128s70.8608 26.368 70.8608 110.08v377.344c0 12.544-7.4752 23.9104-19.0976 28.5184-9.216 3.6352-21.0432 5.8368-36.096 5.8368H203.2128c-35.584 0-52.0192-9.6256-62.208-23.1936-2.2528 24.32-17.5104 78.592 131.7376 78.592h583.4752l1.8432-16.9984c31.5904-14.592 44.544-42.5984 44.544-94.72V224.8192c0-43.008-40.7552-79.2064-130.4576-80.6912z" fill="#5078FF" p-id="47270"></path><path d="M339.5584 194.4576h-30.1056a12.8 12.8 0 0 1 0-25.6h30.1056a12.8 12.8 0 0 1 0 25.6zM160.7168 479.5392a12.8 12.8 0 0 1-12.8-12.8v-227.84c0-38.656 31.4368-70.0928 70.0928-70.0928h28.16a12.8 12.8 0 0 1 0 25.6h-28.16c-24.5248 0-44.4928 19.968-44.4928 44.4928v227.84c0 7.1168-5.7344 12.8-12.8 12.8z" fill="#FFFFFF" p-id="47271"></path><path d="M277.7088 524.6464c-5.4784 0-10.9568-2.2016-15.0016-6.5024-7.68-8.2944-7.2704-21.248 1.024-28.928l120.1152-111.7696a20.42368 20.42368 0 0 1 28.928 1.024c7.68 8.2944 7.2704 21.248-1.024 28.928L291.6864 519.168c-3.9424 3.6864-8.96 5.4784-13.9776 5.4784zM637.1328 462.6432c-5.4784 0-10.9568-2.2016-15.0016-6.5024-7.68-8.2944-7.2704-21.248 1.024-28.928l120.1152-111.7696c8.2944-7.7312 21.248-7.2704 28.928 1.024s7.2704 21.248-1.024 28.928l-120.1152 111.7696c-3.9424 3.6352-8.96 5.4784-13.9264 5.4784zM434.0224 521.728a20.47488 20.47488 0 0 1-14.3872-35.072l147.8144-145.9712a20.47488 20.47488 0 0 1 28.9792 0.2048 20.47488 20.47488 0 0 1-0.2048 28.9792l-147.8144 145.9712c-3.9936 3.9424-9.1648 5.888-14.3872 5.888z" fill="#211D38" p-id="47272"></path><path d="M809.3184 126.6176H218.368c-62.0544 0-112.5376 50.4832-112.5376 112.5376v387.3792c0 62.0544 50.4832 112.5376 112.5376 112.5376H335.872v110.8992H200.192c-11.3152 0-20.48 9.1648-20.48 20.48s9.1648 20.48 20.48 20.48h620.8c11.3152 0 20.48-9.1648 20.48-20.48s-9.1648-20.48-20.48-20.48h-150.8864v-110.8992h139.2128c62.0544 0 112.5376-50.4832 112.5376-112.5376V239.1552c0-62.0544-50.4832-112.5376-112.5376-112.5376z m-180.1728 723.3536H376.7808v-110.8992h252.3648v110.8992z m251.7504-223.4368c0 39.4752-32.1024 71.5776-71.5776 71.5776H218.368c-39.4752 0-71.5776-32.1024-71.5776-71.5776V239.1552c0-39.4752 32.1024-71.5776 71.5776-71.5776h590.9504c39.4752 0 71.5776 32.1024 71.5776 71.5776v387.3792z" fill="#211D38" p-id="47273"></path></svg>